<svg width="36" height="15" viewBox="0 0 36 15" fill="none" xmlns="http://www.w3.org/2000/svg">
<path fill-rule="evenodd" clip-rule="evenodd" d="M4.76352 2.78307C5.43266 2.84016 6.10179 2.44054 6.52 1.93387C6.93124 1.41294 7.20308 0.713607 7.13337 0C6.54091 0.0285443 5.80905 0.39962 5.39084 0.920553C5.00748 1.37013 4.67988 2.098 4.76352 2.78307ZM12.7235 11.9743V0.849186H16.801C18.906 0.849186 20.3767 2.33349 20.3767 4.50285C20.3767 6.67221 18.8781 8.17078 16.7452 8.17078H14.4102V11.9743H12.7235ZM7.12637 2.91868C6.53688 2.88394 5.99899 3.10018 5.56452 3.27485C5.28493 3.38725 5.04817 3.48243 4.86805 3.48243C4.66591 3.48243 4.41937 3.38216 4.14257 3.26957C3.77987 3.12206 3.36519 2.9534 2.93034 2.96149C1.93361 2.97577 1.00658 3.55379 0.497762 4.47434C-0.54776 6.31544 0.225927 9.04142 1.2366 10.54C1.73148 11.2821 2.32394 12.0957 3.1046 12.0671C3.44804 12.0538 3.69509 11.9465 3.95077 11.8354C4.24512 11.7076 4.5509 11.5747 5.02836 11.5747C5.48926 11.5747 5.78167 11.7041 6.06237 11.8283C6.32926 11.9464 6.58557 12.0598 6.96606 12.0528C7.7746 12.0386 8.28342 11.3107 8.7783 10.5685C9.31235 9.77201 9.54704 8.99465 9.58266 8.87667L9.58683 8.86302C9.58598 8.86214 9.57938 8.85905 9.56774 8.85359C9.38921 8.76992 8.02467 8.13036 8.01158 6.41535C7.99844 4.97584 9.09391 4.2465 9.26635 4.13169L9.26641 4.13165L9.26643 4.13164C9.27688 4.12468 9.28393 4.11999 9.28712 4.11754C8.5901 3.0614 7.50276 2.94722 7.12637 2.91868ZM23.4575 12.0599C24.517 12.0599 25.4998 11.5104 25.9459 10.6398H25.9807V11.9743H27.5421V6.43669C27.5421 4.83108 26.2874 3.79635 24.3567 3.79635C22.5654 3.79635 21.241 4.84535 21.1923 6.28683H22.7117C22.8372 5.60177 23.4576 5.1522 24.3079 5.1522C25.3395 5.1522 25.918 5.64459 25.918 6.55087V7.16457L23.813 7.29302C21.8544 7.41433 20.795 8.23498 20.795 9.66219C20.795 11.1037 21.8893 12.0599 23.4575 12.0599ZM23.9105 10.7398C23.0114 10.7398 22.4398 10.2973 22.4398 9.61939C22.4398 8.92006 22.9905 8.5133 24.043 8.44908L25.9179 8.32777V8.95574C25.9179 9.9976 25.0536 10.7398 23.9105 10.7398ZM32.7209 12.4096C32.0447 14.3577 31.2711 15 29.6261 15C29.5006 15 29.0824 14.9857 28.9849 14.9572V13.6227C29.0894 13.637 29.3473 13.6513 29.4797 13.6513C30.2255 13.6513 30.6437 13.3302 30.9016 12.4952L31.055 12.0028L28.1972 3.90342H29.9607L31.9472 10.4757H31.982L33.9685 3.90342H35.6832L32.7209 12.4096ZM14.4101 2.30496H16.3548C17.8185 2.30496 18.6549 3.1042 18.6549 4.51001C18.6549 5.91581 17.8185 6.72219 16.3478 6.72219H14.4101V2.30496Z" fill="#090A0A"/>
</svg>
