<svg width="16" height="16" viewBox="0 0 16 16" fill="none" xmlns="http://www.w3.org/2000/svg">
<g clip-path="url(#clip0_1_2602)">
<path d="M6.66664 11.0001L10.6666 8.0001L6.66664 5.0001V11.0001ZM7.99997 1.33344C4.31997 1.33344 1.33331 4.3201 1.33331 8.0001C1.33331 11.6801 4.31997 14.6668 7.99997 14.6668C11.68 14.6668 14.6666 11.6801 14.6666 8.0001C14.6666 4.3201 11.68 1.33344 7.99997 1.33344ZM7.99997 13.3334C5.05997 13.3334 2.66664 10.9401 2.66664 8.0001C2.66664 5.0601 5.05997 2.66677 7.99997 2.66677C10.94 2.66677 13.3333 5.0601 13.3333 8.0001C13.3333 10.9401 10.94 13.3334 7.99997 13.3334Z" fill="white"/>
</g>
<defs>
<clipPath id="clip0_1_2602">
<rect width="15.2273" height="15.2273" fill="white" transform="scale(1.05074)"/>
</clipPath>
</defs>
</svg>
