<svg width="20" height="20" viewBox="0 0 20 20" fill="none" xmlns="http://www.w3.org/2000/svg">
<path d="M16.275 6.66667L11.6667 2.05833C11.5496 1.94109 11.3907 1.87515 11.225 1.875H9.16666C8.55887 1.875 7.97597 2.11644 7.5462 2.54621C7.11643 2.97598 6.87499 3.55888 6.87499 4.16667V5.20833H5.83332C5.22554 5.20833 4.64264 5.44978 4.21287 5.87955C3.7831 6.30932 3.54166 6.89221 3.54166 7.5V15.8333C3.54166 16.4411 3.7831 17.024 4.21287 17.4538C4.64264 17.8836 5.22554 18.125 5.83332 18.125H11.6667C12.2744 18.125 12.8573 17.8836 13.2871 17.4538C13.7169 17.024 13.9583 16.4411 13.9583 15.8333V14.7917H14.1667C14.7744 14.7917 15.3573 14.5502 15.7871 14.1205C16.2169 13.6907 16.4583 13.1078 16.4583 12.5V7.08333C16.4518 6.92634 16.3863 6.77757 16.275 6.66667ZM11.875 4.00833L14.325 6.45833H11.875V4.00833ZM12.7083 15.8333C12.7083 16.1096 12.5986 16.3746 12.4032 16.5699C12.2079 16.7653 11.9429 16.875 11.6667 16.875H5.83332C5.55706 16.875 5.2921 16.7653 5.09675 16.5699C4.9014 16.3746 4.79166 16.1096 4.79166 15.8333V7.5C4.79166 7.22373 4.9014 6.95878 5.09675 6.76343C5.2921 6.56808 5.55706 6.45833 5.83332 6.45833H6.87499V12.5C6.87499 13.1078 7.11643 13.6907 7.5462 14.1205C7.97597 14.5502 8.55887 14.7917 9.16666 14.7917H12.7083V15.8333ZM14.1667 13.5417H9.16666C8.89039 13.5417 8.62544 13.4319 8.43009 13.2366C8.23474 13.0412 8.12499 12.7763 8.12499 12.5V4.16667C8.12499 3.8904 8.23474 3.62545 8.43009 3.4301C8.62544 3.23475 8.89039 3.125 9.16666 3.125H10.625V7.08333C10.6271 7.24842 10.6937 7.40614 10.8104 7.52289C10.9272 7.63963 11.0849 7.70617 11.25 7.70833H15.2083V12.5C15.2083 12.7763 15.0986 13.0412 14.9032 13.2366C14.7079 13.4319 14.4429 13.5417 14.1667 13.5417Z" fill="#898C8C"/>
</svg>
