<svg width="22" height="22" viewBox="0 0 22 22" fill="none" xmlns="http://www.w3.org/2000/svg">
<g clip-path="url(#clip0_1_2577)">
<path d="M1.83331 5.49992C1.83331 4.52746 2.21962 3.59483 2.90725 2.90719C3.59489 2.21956 4.52752 1.83325 5.49998 1.83325H16.5C17.4724 1.83325 18.4051 2.21956 19.0927 2.90719C19.7803 3.59483 20.1666 4.52746 20.1666 5.49992V16.4999C20.1666 17.4724 19.7803 18.405 19.0927 19.0926C18.4051 19.7803 17.4724 20.1666 16.5 20.1666H5.49998C4.52752 20.1666 3.59489 19.7803 2.90725 19.0926C2.21962 18.405 1.83331 17.4724 1.83331 16.4999V5.49992Z" stroke="white" stroke-width="2" stroke-linecap="round" stroke-linejoin="round"/>
<path d="M7.79167 10.0833C9.05732 10.0833 10.0833 9.05732 10.0833 7.79167C10.0833 6.52601 9.05732 5.5 7.79167 5.5C6.52601 5.5 5.5 6.52601 5.5 7.79167C5.5 9.05732 6.52601 10.0833 7.79167 10.0833Z" stroke="white" stroke-width="2" stroke-linecap="round" stroke-linejoin="round"/>
<path d="M13.3155 11.5692L5.5 20.1666H16.6219C17.562 20.1666 18.4637 19.7931 19.1284 19.1284C19.7932 18.4636 20.1667 17.562 20.1667 16.6219V16.4999C20.1667 16.0728 20.0063 15.9087 19.7175 15.5924L16.0233 11.5637C15.8512 11.3759 15.6417 11.226 15.4084 11.1237C15.1751 11.0213 14.923 10.9687 14.6682 10.9692C14.4134 10.9698 14.1615 11.0234 13.9286 11.1267C13.6957 11.23 13.4869 11.3807 13.3155 11.5692Z" stroke="white" stroke-width="2" stroke-linecap="round" stroke-linejoin="round"/>
</g>
<defs>
<clipPath id="clip0_1_2577">
<rect width="22" height="22" fill="white"/>
</clipPath>
</defs>
</svg>
