<svg width="50" height="34" viewBox="0 0 50 34" fill="none" xmlns="http://www.w3.org/2000/svg">
<path fill-rule="evenodd" clip-rule="evenodd" d="M14.0679 21.5913H11.8573C11.7061 21.5913 11.5774 21.7009 11.5538 21.8497L10.6598 27.5009C10.642 27.6125 10.7286 27.713 10.8421 27.713H11.8974C12.0487 27.713 12.1773 27.6034 12.2009 27.4542L12.4421 25.93C12.4653 25.7808 12.5943 25.6713 12.7453 25.6713H13.445C14.9012 25.6713 15.7415 24.9688 15.9611 23.5767C16.06 22.9677 15.9653 22.4892 15.6791 22.1539C15.365 21.7861 14.8077 21.5913 14.0679 21.5913ZM14.3229 23.6553C14.202 24.4461 13.596 24.4461 13.01 24.4461H12.6764L12.9104 22.9692C12.9243 22.88 13.0019 22.8143 13.0924 22.8143H13.2453C13.6445 22.8143 14.0211 22.8143 14.2157 23.0411C14.3316 23.1765 14.3672 23.3775 14.3229 23.6553ZM20.6757 23.63H19.6171C19.5269 23.63 19.449 23.6957 19.4351 23.7851L19.3882 24.0802L19.3142 23.9733C19.0851 23.6416 18.5741 23.5308 18.064 23.5308C16.8942 23.5308 15.8951 24.4141 15.7005 25.6531C15.5994 26.2711 15.7432 26.8621 16.0948 27.2742C16.4175 27.6532 16.8791 27.8111 17.4282 27.8111C18.3707 27.8111 18.8934 27.2068 18.8934 27.2068L18.8462 27.5002C18.8284 27.6123 18.915 27.7128 19.0278 27.7128H19.9813C20.133 27.7128 20.2609 27.6032 20.2848 27.4541L20.857 23.842C20.8751 23.7309 20.7888 23.63 20.6757 23.63ZM19.2001 25.684C19.0979 26.2869 18.6179 26.6916 18.0058 26.6916C17.6985 26.6916 17.4527 26.5933 17.295 26.4071C17.1386 26.2222 17.079 25.9588 17.1289 25.6657C17.2243 25.0678 17.7124 24.65 18.3152 24.65C18.6157 24.65 18.8601 24.7494 19.021 24.9373C19.1823 25.1272 19.2463 25.392 19.2001 25.684ZM25.2497 23.6298H26.3135C26.4624 23.6298 26.5493 23.7964 26.4647 23.9182L22.9267 29.0096C22.8694 29.0921 22.775 29.1411 22.6742 29.1411H21.6117C21.4622 29.1411 21.3748 28.9732 21.4614 28.8511L22.5631 27.3008L21.3914 23.8727C21.3509 23.7536 21.4391 23.6298 21.5663 23.6298H22.6115C22.7473 23.6298 22.8672 23.7187 22.9063 23.8483L23.5281 25.9187L24.9954 23.7642C25.0528 23.6801 25.1482 23.6298 25.2497 23.6298Z" fill="#253B80"/>
<path fill-rule="evenodd" clip-rule="evenodd" d="M36.7831 27.5008L37.6903 21.7463C37.7043 21.657 37.7819 21.5912 37.8721 21.5909H38.8934C39.0062 21.5909 39.0928 21.6917 39.075 21.8033L38.1804 27.4542C38.157 27.6033 38.0284 27.7129 37.8769 27.7129H36.9647C36.852 27.7129 36.7653 27.6124 36.7831 27.5008ZM29.8354 21.5912H27.6244C27.4735 21.5912 27.3449 21.7008 27.3212 21.8497L26.4272 27.5008C26.4094 27.6124 26.496 27.7129 26.6089 27.7129H27.7433C27.8488 27.7129 27.939 27.6362 27.9554 27.5319L28.2091 25.93C28.2325 25.7807 28.3614 25.6713 28.5123 25.6713H29.2118C30.6682 25.6713 31.5084 24.9687 31.7281 23.5767C31.8273 22.9676 31.732 22.4891 31.446 22.1539C31.1321 21.786 30.5752 21.5912 29.8354 21.5912ZM30.0904 23.6553C29.9698 24.4461 29.3637 24.4461 28.7774 24.4461H28.4441L28.6785 22.9691C28.6924 22.88 28.7693 22.8142 28.8601 22.8142H29.013C29.4119 22.8142 29.7888 22.8142 29.9833 23.041C30.0994 23.1764 30.1347 23.3774 30.0904 23.6553ZM36.4426 23.6299H35.3847C35.2938 23.6299 35.2166 23.6957 35.203 23.785L35.1562 24.0801L35.0818 23.9732C34.8527 23.6415 34.342 23.5307 33.832 23.5307C32.6621 23.5307 31.6634 24.414 31.4688 25.6531C31.3679 26.271 31.5111 26.862 31.8627 27.2742C32.186 27.6531 32.647 27.811 33.1961 27.811C34.1386 27.811 34.6612 27.2068 34.6612 27.2068L34.6141 27.5001C34.5963 27.6122 34.6829 27.7127 34.7964 27.7127H35.7496C35.9005 27.7127 36.0291 27.6031 36.0528 27.454L36.6252 23.842C36.6427 23.7309 36.5561 23.6299 36.4426 23.6299ZM34.9671 25.6839C34.8655 26.2868 34.3849 26.6916 33.7727 26.6916C33.4659 26.6916 33.2197 26.5933 33.0619 26.407C32.9055 26.2221 32.8467 25.9588 32.8959 25.6656C32.9918 25.0678 33.4792 24.6499 34.082 24.6499C34.3827 24.6499 34.627 24.7494 34.7881 24.9373C34.9499 25.1271 35.0139 25.3919 34.9671 25.6839Z" fill="#179BD7"/>
<path d="M22.2486 19.5696L22.5203 17.8487L21.915 17.8347H19.0244L21.0332 5.1359C21.0394 5.09756 21.0597 5.06182 21.0893 5.03644C21.1189 5.01106 21.1569 4.99707 21.1964 4.99707H26.0704C27.6886 4.99707 28.8052 5.33276 29.3883 5.99533C29.6615 6.30616 29.8356 6.63097 29.9199 6.98842C30.0081 7.36349 30.0098 7.81159 29.9235 8.35813L29.9172 8.39802V8.7482L30.1906 8.90259C30.4208 9.02432 30.6036 9.16368 30.7439 9.32324C30.9778 9.58899 31.1291 9.92675 31.1929 10.3272C31.2589 10.739 31.2371 11.2291 31.1291 11.7839C31.0043 12.4222 30.8027 12.978 30.5304 13.4329C30.2799 13.852 29.9608 14.1995 29.5821 14.469C29.2204 14.7249 28.7907 14.9192 28.3049 15.0435C27.834 15.1657 27.2973 15.2274 26.7086 15.2274H26.3292C26.058 15.2274 25.7945 15.3248 25.5878 15.4994C25.3804 15.6776 25.2431 15.921 25.2011 16.1873L25.1725 16.3422L24.6924 19.3753L24.6705 19.4867C24.6649 19.522 24.655 19.5396 24.6405 19.5515C24.6275 19.5623 24.6088 19.5696 24.5905 19.5696H22.2486Z" fill="#253B80"/>
<path d="M30.4494 8.4386C30.4349 8.53132 30.4183 8.62612 30.3996 8.72351C29.7567 12.0136 27.5577 13.1502 24.7491 13.1502H23.3191C22.9757 13.1502 22.6862 13.3988 22.6327 13.7366L21.9005 18.3659L21.6932 19.678C21.6583 19.8998 21.8299 20.0997 22.0543 20.0997H24.5907C24.891 20.0997 25.1461 19.8822 25.1933 19.5869L25.2183 19.4583L25.6959 16.4371L25.7266 16.2714C25.7733 15.9751 26.0289 15.7576 26.3292 15.7576H26.7086C29.1659 15.7576 31.0896 14.7629 31.6519 11.8846C31.8867 10.6822 31.7651 9.67827 31.1436 8.97218C30.9556 8.75926 30.7222 8.58261 30.4494 8.4386Z" fill="#179BD7"/>
<path d="M29.7767 8.17154C29.6786 8.14304 29.5772 8.11714 29.4732 8.09383C29.3688 8.07104 29.2617 8.05084 29.1516 8.03322C28.766 7.97105 28.3436 7.94153 27.891 7.94153H24.0707C23.9767 7.94153 23.8874 7.96276 23.8073 8.0011C23.6311 8.08554 23.5002 8.25184 23.4685 8.45542L22.6557 13.5872L22.6324 13.7369C22.6859 13.3991 22.9754 13.1504 23.3188 13.1504H24.7488C27.5574 13.1504 29.7565 12.0133 30.3993 8.72377C30.4184 8.62638 30.4346 8.53158 30.4491 8.43885C30.2865 8.35285 30.1103 8.27929 29.9206 8.2166C29.874 8.20106 29.8256 8.18605 29.7767 8.17154Z" fill="#222D65"/>
<path d="M23.4686 8.45532C23.5003 8.25172 23.6313 8.08544 23.8074 8.00151C23.888 7.96317 23.9768 7.94194 24.0708 7.94194H27.8912C28.3438 7.94194 28.7662 7.97146 29.1517 8.03363C29.2619 8.05124 29.369 8.07145 29.4734 8.09424C29.5774 8.11756 29.6786 8.14346 29.7769 8.17194C29.8257 8.18645 29.874 8.20147 29.9213 8.2165C30.1109 8.27918 30.2871 8.35326 30.4497 8.43874C30.641 7.22289 30.4482 6.39507 29.7889 5.64545C29.0619 4.82022 27.7498 4.46692 26.0709 4.46692H21.1968C20.8538 4.46692 20.5614 4.71557 20.5083 5.05385L18.4782 17.8832C18.4381 18.137 18.6345 18.366 18.8912 18.366H21.9004L22.6559 13.587L23.4686 8.45532Z" fill="#253B80"/>
</svg>
