<svg width="24" height="24" viewBox="0 0 24 24" fill="none" xmlns="http://www.w3.org/2000/svg">
<path fill-rule="evenodd" clip-rule="evenodd" d="M15.0402 4.0515C16.0502 4.4535 16.3592 5.8535 16.7722 6.3035C17.1852 6.7535 17.7762 6.9065 18.1032 6.9065C19.8412 6.9065 21.2502 8.3155 21.2502 10.0525V15.8475C21.2502 18.1775 19.3602 20.0675 17.0302 20.0675H6.97024C4.63924 20.0675 2.75024 18.1775 2.75024 15.8475V10.0525C2.75024 8.3155 4.15924 6.9065 5.89724 6.9065C6.22324 6.9065 6.81424 6.7535 7.22824 6.3035C7.64124 5.8535 7.94924 4.4535 8.95924 4.0515C9.97024 3.6495 14.0302 3.6495 15.0402 4.0515Z" stroke="#D1D1D1" stroke-linecap="round" stroke-linejoin="round"/>
<path d="M17.4955 9.5H17.5045" stroke="#D1D1D1" stroke-linecap="round" stroke-linejoin="round"/>
<path fill-rule="evenodd" clip-rule="evenodd" d="M15.1789 13.1283C15.1789 11.3723 13.7559 9.94922 11.9999 9.94922C10.2439 9.94922 8.82092 11.3723 8.82092 13.1283C8.82092 14.8843 10.2439 16.3073 11.9999 16.3073C13.7559 16.3073 15.1789 14.8843 15.1789 13.1283Z" stroke="#D1D1D1" stroke-linecap="round" stroke-linejoin="round"/>
</svg>
