<svg width="24" height="24" viewBox="0 0 24 24" fill="none" xmlns="http://www.w3.org/2000/svg">
<path d="M17.931 22C19.5815 22 20.9195 20.6569 20.9195 19C20.9195 17.3431 19.5815 16 17.931 16C16.2805 16 14.9425 17.3431 14.9425 19C14.9425 20.6569 16.2805 22 17.931 22Z" stroke="#343737" stroke-width="1.5" stroke-linecap="round" stroke-linejoin="round"/>
<path d="M5.97703 15C7.62754 15 8.96554 13.6569 8.96554 12C8.96554 10.3431 7.62754 9 5.97703 9C4.32653 9 2.98853 10.3431 2.98853 12C2.98853 13.6569 4.32653 15 5.97703 15Z" stroke="#343737" stroke-width="1.5" stroke-linecap="round" stroke-linejoin="round"/>
<path d="M8.55707 13.51L15.3609 17.49" stroke="#343737" stroke-width="1.5" stroke-linecap="round" stroke-linejoin="round"/>
<path d="M17.931 8C19.5815 8 20.9195 6.65685 20.9195 5C20.9195 3.34315 19.5815 2 17.931 2C16.2805 2 14.9425 3.34315 14.9425 5C14.9425 6.65685 16.2805 8 17.931 8Z" stroke="#343737" stroke-width="1.5" stroke-linecap="round" stroke-linejoin="round"/>
<path d="M15.3509 6.51001L8.55707 10.49" stroke="#343737" stroke-width="1.5" stroke-linecap="round" stroke-linejoin="round"/>
</svg>
