<svg width="48" height="34" viewBox="0 0 48 34" fill="none" xmlns="http://www.w3.org/2000/svg">
<path fill-rule="evenodd" clip-rule="evenodd" d="M24.4472 24.857C22.6157 26.4216 20.2399 27.3662 17.6439 27.3662C11.8512 27.3662 7.15536 22.6636 7.15536 16.8626C7.15536 11.0616 11.8512 6.35901 17.6439 6.35901C20.24 6.35901 22.6158 7.30356 24.4473 8.86821C26.2788 7.30358 28.6546 6.35904 31.2506 6.35904C37.0433 6.35904 41.7391 11.0617 41.7391 16.8626C41.7391 22.6636 37.0433 27.3662 31.2506 27.3662C28.6545 27.3662 26.2788 26.4217 24.4472 24.857Z" fill="#ED0006"/>
<path fill-rule="evenodd" clip-rule="evenodd" d="M24.4472 24.857C26.7024 22.9305 28.1324 20.0638 28.1324 16.8626C28.1324 13.6614 26.7024 10.7947 24.4472 8.86817C26.2787 7.30354 28.6545 6.35901 31.2506 6.35901C37.0432 6.35901 41.7391 11.0616 41.7391 16.8626C41.7391 22.6636 37.0432 27.3662 31.2506 27.3662C28.6545 27.3662 26.2787 26.4216 24.4472 24.857Z" fill="#F9A000"/>
<path fill-rule="evenodd" clip-rule="evenodd" d="M24.4473 24.857C26.7024 22.9305 28.1324 20.0638 28.1324 16.8627C28.1324 13.6615 26.7024 10.7948 24.4473 8.86829C22.1922 10.7948 20.7622 13.6615 20.7622 16.8627C20.7622 20.0638 22.1922 22.9305 24.4473 24.857Z" fill="#FF5E00"/>
</svg>
