<svg width="17" height="17" viewBox="0 0 17 17" fill="none" xmlns="http://www.w3.org/2000/svg">
<path d="M12.75 15.5833C13.9236 15.5833 14.875 14.6319 14.875 13.4583C14.875 12.2846 13.9236 11.3333 12.75 11.3333C11.5764 11.3333 10.625 12.2846 10.625 13.4583C10.625 14.6319 11.5764 15.5833 12.75 15.5833Z" stroke="#898C8C" stroke-width="1.5" stroke-linecap="round" stroke-linejoin="round"/>
<path d="M4.25 10.625C5.4236 10.625 6.375 9.6736 6.375 8.5C6.375 7.32639 5.4236 6.375 4.25 6.375C3.07639 6.375 2.125 7.32639 2.125 8.5C2.125 9.6736 3.07639 10.625 4.25 10.625Z" stroke="#898C8C" stroke-width="1.5" stroke-linecap="round" stroke-linejoin="round"/>
<path d="M6.08459 9.56958L10.9225 12.3887" stroke="#898C8C" stroke-width="1.5" stroke-linecap="round" stroke-linejoin="round"/>
<path d="M12.75 5.66675C13.9236 5.66675 14.875 4.71535 14.875 3.54175C14.875 2.36814 13.9236 1.41675 12.75 1.41675C11.5764 1.41675 10.625 2.36814 10.625 3.54175C10.625 4.71535 11.5764 5.66675 12.75 5.66675Z" stroke="#898C8C" stroke-width="1.5" stroke-linecap="round" stroke-linejoin="round"/>
<path d="M10.9154 4.61133L6.08459 7.43049" stroke="#898C8C" stroke-width="1.5" stroke-linecap="round" stroke-linejoin="round"/>
</svg>
